<?xml version="1.0" encoding="UTF-8"?>
<svg id="Calque_1" data-name="Calque 1" xmlns="http://www.w3.org/2000/svg" version="1.1" viewBox="0 0 1920 1080">
  <defs>
    <style>
      .cls-1 {
        fill: #000;
        stroke-width: 0px;
      }
    </style>
  </defs>
  <path class="cls-1" d="M1185.13,757.03c-8.84.84-16.54,1.57-26.09,2.48,2.1-5.01,3.15-7.52,4.19-10.02-.7-.59-1.4-1.17-2.1-1.76-1.57,1.89-3.92,3.56-4.53,5.73-.78,2.76.34,6.05-.34,8.87-.39,1.62-2.72,2.78-4.18,4.14-1.19-1.67-3.31-3.32-3.36-5.03-.09-3.14,1.05-6.31,1.69-9.56-12.08-.44-18.71,6.81-18.27,19.27.52,15.01,10.54,24.8,24.9,23.65v-22.78c.77-.24,1.54-.47,2.31-.71,5.45,11.43,10.9,22.86,17.24,36.18-5.89,8.44-11.98,20.29-21.03,29.1-6.36,6.19-16.48,10.69-25.38,11.64-19.07,2.04-38.48,2.1-57.67,1.28-7.01-.3-14.88-4.07-20.46-8.59-9.58-7.75-6.75-18.82,4.82-23.22,1.54-.59,3.21-1.23,4.81-1.23,8.54,0,13.77-3.67,17.65-11.71,4.08-8.44,12.78-11.06,21.94-11.25,6.27-.13,14.54,1.09,15.64-6.8.84-6-2.75-12.67-4.68-18.95-.43-1.41-2.16-2.42-3.76-4.11,1.42-1.83,2.51-3.87,4.15-5.25,10.81-9.1,12.45-12.69,6.07-25.39-11.22-22.34-24.17-43.61-46.39-57.18-1.98-1.21-4.14-2.39-5.61-4.11-13.29-15.5-26.3-31.25-39.71-46.65-6.64-7.62-13.36-15.34-21.06-21.82-13.65-11.49-28.61-21.45-42.08-33.15-38.74-33.66-82.39-57.88-131.88-71.74-4.69-1.31-8.25-6.37-12.59-9.31-7.53-5.09-14.64-11.84-23.01-14.45-28.38-8.83-57.74-7.92-86.96-5.17-14.53,1.37-28.93,4.13-43.43,5.85-12.54,1.49-23.5-2.14-32.87-10.96-11.84-11.15-24.07-21.88-36.03-32.9-9.09-8.38-17.59-16.98-19.33-30.37-.49-3.81-4.4-7.22-6.87-10.71-17.25-24.39-34.83-48.55-51.61-73.25-4.57-6.72-7.33-14.89-9.76-22.75-1.01-3.24.3-7.83,2.07-10.95.6-1.07,5.99,1.27,8.86.6,4.1-.96,7.89-3.24,11.81-4.96-1.92-2.75-3.33-7.12-5.87-7.93-6.86-2.2-9.19-6.61-10.12-13.11-1.17-8.21-3.09-16.3-4.54-24.47-1.45-8.17,2.34-13.59,10.27-13.75,11.55-.24,23.2.57,34.67,2.05,3.24.42,6.52,4.3,8.82,7.33,2.99,3.92,5.01,8.58,7.46,12.91,7.83,13.87,14.73,15.57,28.42,8.12,9.7-5.28,19.86-9.76,29.94-14.31,1.94-.88,5.89-1.38,6.54-.43,5.53,8.12,13.02,3.02,19.69,3.75,6.42.7,11.96,3.6,17.97,7.12,10.14,5.93,18.21,17.91,33.59,15.27,8.82-1.51,19.04,1.12,27.84,4.16,28.51,9.84,56.4,21.5,85.02,30.98,21.4,7.09,43.48,7.4,65.92,2.63,16.82-3.58,34.16-5.59,51.35-6.38,28.58-1.31,53.23-11.21,73.6-30.89,22.83-22.06,48.36-40.33,74.7-57.86,14.1-9.38,28.01-12.58,44.21-8.47,26.99,6.85,54.34,12.19,79.36,25.49,8.02,4.27,17.41,6.39,26.43,8.25,11.5,2.37,21.72,6.29,31.92,12.65,11.92,7.42,25.69,12.54,39.28,16.47,31.78,9.18,60.07,24.53,86.16,44.52,15.56,11.92,30.18,26.09,47.55,34.36,23.23,11.06,34.22,30.24,44.54,51.19,8.75,17.75,20.78,30.52,41.65,34.97,16.97,3.61,32.27,12.76,35.98,31.84,3.53,18.15-7.34,30.98-19.85,42.07-6.17,5.47-12.82,11.21-20.3,14.22-17.81,7.16-26.07,21.56-32.74,37.92-6.21,15.23-6.39,15.59-22.97,14.4-10.2-.73-20.31-2.93-30.45-4.51-6.54-1.02-13.07-2.97-19.6-2.98-11.95-.02-17.55,6.84-13.98,18.22,2.54,8.08-.37,11.4-6.67,14.83-30.41,16.54-62.17,28.62-97.36,27.89-22.33-.46-39.27,10.8-50.13,27.46-7.32,11.23-17.52,15.48-26.84,22.38-3.2,2.37-6.56,4.54-9.7,6.99-14.78,11.58-22.83,25.8-17.25,45.15,2.34,8.12.12,13.34-8.45,15.95-11.68,3.55-11.58,3.82-5.79,14.76.74,1.39,1.16,2.95,2.64,6.81Z"/>
  <path class="cls-1" d="M1355.09,765.24c-1.38-4.85-1.96-8.54-3.45-11.82-2.5-5.5-2.33-9.19,4.25-11.51,2.38-.84,4.31-3.8,5.76-6.21,2.39-3.96,4.39-8.19,6.25-12.43,7.12-16.25,18.24-23.72,36.98-20.85,10.55,1.62,21.77-.97,32.67-1.9,12.4-1.06,17.83,2.77,23.58,13.79,8.09,15.51,16.55,30.93,26.2,45.5,6.51,9.82,8.41,18.92,4.09,29.85-3.4,8.61-5.86,17.6-8.82,26.39-2.72,8.09-8.55,11.2-16.37,8.29-21.65-8.07-44.16-14.55-61.14-31.82-3.17-3.22-7.39-5.82-11.6-7.49-6.43-2.56-11.34-5.51-13.67-12.86-.95-3.01-5.97-5.75-9.62-6.64-4.67-1.14-9.82-.28-15.1-.28Z"/>
  <path class="cls-1" d="M1353.24,694.54c7.64,1.26,13.96,2.31,20.28,3.35.26.98.52,1.96.78,2.94-10.06,8.4-20.79,15.86-34.59,17.32-2.17.23-4.73-3.31-7.11-5.11,2.03-1.58,3.92-4.26,6.12-4.55,7.72-1.02,14.53-2.5,14.52-13.95Z"/>
  <path class="cls-1" d="M1363.63,716.41c-1.91,9.01-6.5,16.46-15.37,19.8-2.43.91-6.42-2.34-9.69-3.68-.1-1.07-.2-2.15-.3-3.22,7.66-5.24,15.32-10.49,22.98-15.73.8.95,1.59,1.89,2.39,2.84Z"/>
</svg>