<?xml version="1.0" encoding="UTF-8"?>
<svg id="Layer_1" data-name="Layer 1" xmlns="http://www.w3.org/2000/svg" viewBox="0 0 2863.87 1764.35">
  <defs>
    <style>
      .cls-1, .cls-2 {
        font-family: Helvetica, Helvetica;
        font-size: 24px;
      }

      .cls-1, .cls-3, .cls-4, .cls-5 {
        fill: #1a2f35;
      }

      .cls-6, .cls-7, .cls-8, .cls-3, .cls-9 {
        stroke: #1a2f35;
      }

      .cls-6, .cls-7, .cls-3 {
        stroke-miterlimit: 10;
        stroke-width: 2px;
      }

      .cls-6, .cls-8, .cls-9, .cls-10 {
        fill: none;
      }

      .cls-7, .cls-2 {
        fill: #fff;
      }

      .cls-8, .cls-9 {
        stroke-width: 9px;
      }

      .cls-8, .cls-9, .cls-10 {
        stroke-linejoin: round;
      }

      .cls-4, .cls-11 {
        stroke-width: 0px;
      }

      .cls-5 {
        font-family: RussoOne-Regular, 'Russo One';
        font-size: 36px;
      }

      .cls-9 {
        stroke-dasharray: 0 0 5.01 5.01;
      }

      .cls-12 {
        letter-spacing: -.07em;
      }

      .cls-11 {
        fill: #93cbd8;
      }

      .cls-10 {
        stroke: #fff;
        stroke-linecap: round;
        stroke-width: 4px;
      }
    </style>
  </defs>
  <g>
    <path class="cls-4" d="M1665.57,1556.62c16.43,18.17,32.61,36.06,48.79,53.95,2.03-.76,4.06-1.52,6.09-2.28.96-11.19.92-22.6,3.21-33.51,1.69-8.08,6.42-15.52,9.79-23.25,6.62,5.83,16.2,10.4,19.34,17.72,11.43,26.66,21.12,54.1,30.35,81.63,1.45,4.32-1.82,11.34-4.83,15.81-9.65,14.31-18.53,29.78-30.88,41.44-11.64,11-26.75,18.88-41.35,26.04-15.75,7.73-32.54,13.46-49.17,19.25-12.93,4.51-26.5,11.57-39.43,10.87-41.72-2.25-83.3-7.35-124.89-11.81-13.31-1.43-26.67-3.47-39.66-6.67-26.09-6.43-34.03-31.4-16.11-51.53,6.12-6.87,14.89-11.5,22.77-16.66,20-13.11,39.96-26.32,60.38-38.75,13.79-8.4,28.23-15.77,42.61-23.15,8.93-4.59,18.61-7.75,27.36-12.61,21.87-12.15,23.76-20.92,20.41-45.19-2.52-18.24-.92-37.36,1.2-55.82,1.71-14.86,7.5-29.2,10.47-43.98,4.55-22.64-.66-43-19.86-56.87-74.5-53.83-131.43-124.15-187.01-196.04-45.07-58.3-105.85-99.48-163.05-144.2-62.98-49.24-127.43-96.62-191.64-144.27-25.59-18.99-52.64-36.01-78.31-54.9-29.06-21.38-61.8-30.89-97.14-32.37-23.65-.99-45.9-6.67-64.31-21.23-47.39-37.48-100.45-48.32-160.18-44.41-54.54,3.57-107.31,13.64-160.44,24.8-27.55,5.79-56.59,5.94-84.96,6.01-26.72.07-49.96-11.82-69.3-29.98-18.75-17.61-36.46-36.32-54.78-54.39-21.51-21.22-43.71-41.77-64.49-63.67-6.44-6.79-9.59-16.87-13.63-25.72-5.84-12.82-8.83-27.61-17.04-38.55-30.19-40.2-62.08-79.13-93.2-118.63-3.79-4.81-7.28-9.98-10.13-15.4-26.7-50.79-53.36-101.61-79.69-152.59-5.11-9.89-10.6-20.22-12.47-30.94-1.32-7.52.77-18.8,5.86-23.3,4.35-3.84,15.33-1.42,22.97.16,4.46.92,7.76,6.58,12.27,8.38,5.3,2.11,13.77,5.12,16.5,2.74,4.03-3.51,7.19-12.52,5.47-17.29-5.43-15.09-12.68-29.65-20.4-43.77-7.76-14.2-17.91-27.12-25.29-41.49-19.1-37.18-1.45-66.03,40.54-67.03,16.78-.4,33.59-.31,50.36.29,8.89.32,19.51-.53,26.26,3.88,21.19,13.86,42.02,28.72,60.93,45.51,21.5,19.09,19.66,44.59,13.42,70.05-.36,1.45.3,3.15,1.15,10.54,13.52-11.46,23.71-21.75,35.53-29.59,8.75-5.8,20.11-12.62,29.42-11.51,16.68,1.99,25.76-3.33,34.53-16.6,10.26-15.53,26.45-22.02,45.18-20.17,12.45,1.23,21.36,7.34,21.76,21.05.37,12.8,6.98,15.82,15.62,8.16,16.09-14.27,32.02-15.7,49.81-4.4,1.79,1.14,4.49,2.01,6.44,1.57,27.76-6.28,49.1,9.26,71.89,20.42,6.37,3.12,13.94,3.83,20.99,5.54,38.45,9.36,77.02,18.27,115.29,28.31,9.47,2.49,19.22,7.15,26.67,13.39,18.96,15.88,40.94,21.52,64.66,24.99,19.19,2.81,38.63,6.87,56.72,13.69,76.22,28.74,153.01,30.35,232.45,14.08,53.49-10.95,108.51-14.67,162.97-20.5,22.22-2.38,41.9-8.83,61.13-20.57,21.32-13.02,45.04-22.05,67.27-33.68,11.14-5.83,25.18-11.15,31.24-20.85,34.01-54.5,83.29-94.77,126.25-140.95,20.07-21.57,39.96-35.93,71.32-35.12,21.3.55,42.67-8.44,64.25-10.24,13.21-1.1,29.17-.48,39.91,5.99,26.65,16.06,55.85,21.26,85,29.14,52.71,14.24,104.38,32.35,156.48,48.84,30.72,9.73,61.05,21.07,92.29,28.69,26,6.35,50.51,14.11,70.96,31.94,17.71,15.44,37.9,25.58,61.42,28.65,3.29.43,6.63,1.37,9.65,2.73,31.08,13.94,61.78,24.9,97.76,22.94,15.7-.86,35.37,13.68,47.97,26.44,19.11,19.34,38.56,36.86,62.72,49.55,9.17,4.82,17.58,12.18,24.48,20.02,26.84,30.53,60.73,49.87,96.87,67.45,40.55,19.72,80.25,41.75,118.07,66.25,14.96,9.69,24.68,28.18,35.31,43.67,12.61,18.36,23.78,37.72,35.27,56.82,6.6,10.98,14.36,21.72,18.49,33.64,7.3,21.1,21.65,33.66,41.92,39.97,20.8,6.48,41.94,11.87,62.99,17.52,52.58,14.12,71.66,56.26,82.23,102.81,9.54,42-12.1,72.96-43.75,98.4-10.83,8.71-19.88,19.64-30.71,28.34-10.29,8.27-21,17.07-33.02,21.97-41.25,16.83-74.12,43.83-99.25,79.86-7.98,11.44-12.76,25.98-15.74,39.8-3.02,14.04-10.32,19.68-23.42,21.88-16.38,2.75-32.43,7.63-48.86,9.75-9.58,1.24-19.62-1.34-29.47-1.8-17-.79-34.01-1.13-51.01-1.89-12.71-.57-25.6-.38-38.06-2.55-18.07-3.15-35.42-5.68-51.2,7-6.44,5.17-9.11,9.69-4.2,18.22,13.31,23.1-9.35,64.59-36.35,67.69-2.21.25-4.63.68-6.69.1-35.27-10.04-61.92,4.37-87.35,27.64-22.29,20.41-50.31,28.24-80.84,26.28-12.27-.79-24.89,1.07-36.88-.99-43.05-7.4-79.34,4.47-112.64,32.45-42.8,35.96-88.92,68.07-130.46,105.36-16.49,14.8-26.69,38.09-35.84,59.21-9.7,22.41-14.55,46.9-21.91,70.35-5.19,16.54-15.68,26.06-33.29,31.66-31.88,10.14-62.89,23.26-93.73,36.38-25.41,10.81-35.9,35.72-51.37,58.01Z"/>
    <path class="cls-4" d="M2512.47,1361.31c6.91,4.66,16.38,7.76,20.29,14.23,20.14,33.37,38.83,67.61,58.09,101.51,5.23,9.21,10.65,18.31,16.03,27.43,13.52,22.88,28.64,45.02,39.74,69.01,3.77,8.16-.12,22.2-4.74,31.43-10.69,21.36-23.96,41.42-36.17,62.02-1.14,1.92-2.11,3.95-3.22,5.89-20.37,35.72-27.7,38.25-62.62,17.18-28.65-17.28-58.94-28.46-91.73-35.42-15.52-3.3-29.35-14.87-43.74-23.07-14.86-8.46-29.67-17.03-44.09-26.22-8.83-5.63-20.64-10.74-24.55-19.14-11.94-25.61-34.58-34.12-58.26-40.49-40.97-11.03-46.13-20.54-27.15-59.48,4.08-8.38,9.09-17.86,16.4-22.82,20.07-13.62,33.32-31.97,46.06-52.11,15.4-24.34,38.66-37.56,68.73-38.61,43.04-1.5,86.02-4.51,129.03-6.87.64-1.49,1.27-2.98,1.91-4.48Z"/>
    <path class="cls-4" d="M2274.67,1371.19c13.68,14.7,11.9,22.42-6.59,30.44-10.57,4.58-20.5,11.2-31.46,14.11-7.29,1.94-16.29.04-23.6-2.66-1.63-.6-1.65-13.47,1.53-17.76,12.18-16.42,25.24-32.37,39.63-46.84,3.86-3.88,17.02-5,19.87-1.88,4.41,4.84,3.64,14.41,5.06,21.98-1.48.88-2.96,1.75-4.45,2.63Z"/>
    <path class="cls-4" d="M2229.99,1459.18c-1.84-1.15-7.28-2.8-9.22-6.35-1.5-2.75-.02-9.58,2.54-11.69,12.74-10.52,26.04-20.44,39.74-29.69,2.81-1.9,10.91-1.37,11.85.46,2.24,4.37,3.21,10.61,1.92,15.34-3.98,14.59-27.95,31.33-46.83,31.94Z"/>
  </g>
  <path class="cls-10" d="M1941.25,883.53l36.72,45.91h61.2l52.02,27.54,70.38,21.42h36.72l49.14-33.66,100.79-94.86v-39.78l-45.9-52.02-26.28-24.48-29.6-58.14-35.86-18.36-18.42-52.02-70.38-24.48-21.42-64.26,3.06-39.78-82.62-48.96h-64.26l-15.3-48.96-24.48-42.84-70.38-39.78-24.48-48.96-85.68-39.78-55.08-42.84s12.24-36.72,0-39.78-76.5-42.84-76.5-42.84l-55.08-21.42-70.38,30.6-48.63,55.08-43.17,55.08-82.62,52.02-91.8,33.66-30.6,39.78-64.26-15.3-88.74,15.3-76.5-6.12-88.74,3.06-70.38-18.36-52.02-27.54-76.5,3.06-52.02-30.6-70.38-36.72-79.56-9.18-79.56-21.42"/>
  <polyline class="cls-10" points="2669.51 623.46 2669.51 693.83 2617.49 733.61 2617.49 788.69 2669.51 834.59 2669.51 883.53 2617.49 947.81 2577.71 1002.89 2504.27 1002.89 2412.47 1002.89 2348.22 1027.37 2366.58 1067.14 2308.44 1087.32 2218.81 1125.28 2134.02 1125.28 2045.28 1152.82 1956.55 1201.78 1907.59 1250.74 1852.51 1305.82 1824.97 1362.67 1824.97 1417.89 1754.59 1436.08 1702.57 1411.62 1626.08 1498.59"/>
  <polyline class="cls-10" points="1549.58 60.43 1601.6 26.77 1723.99 60.43 1754.59 91.03 1809.67 91.03 1858.63 106.33 1904.53 143.05 1953.49 143.05 1993.27 176.71 2054.46 176.71 2127.9 210.37 2189.1 210.37 2238.42 250.15 2238.42 299.11 2238.42 338.88 2282.29 360.3 2323.74 335.82 2372.69 360.3 2461.43 393.96 2525.69 430.68 2556.29 461.28 2586.89 498 2605.25 556.14 2646.78 583.68 2669.51 623.46 2810.26 660.18"/>
  <g>
    <path class="cls-8" d="M2247.42,1380.4s-.77-.38-2.26-1.05"/>
    <path class="cls-9" d="M2240.56,1377.37c-34.85-14.43-198.59-71.26-404.8,34.81"/>
    <path class="cls-8" d="M1833.52,1413.34c-.74.38-1.48.77-2.22,1.16"/>
  </g>
  <path class="cls-6" d="M2104.32,1462.32l-6.02-10.42c-1.01-1.75-3.53-1.75-4.54,0l-6.02,10.42c-.25.44-.36.9-.35,1.36.02,1.35,1.11,2.59,2.62,2.59h.13c1.38,0,2.52,1.07,2.62,2.38.01.19,0,.38-.02.57-2.32,15.74-16.01,26.08-33,27.64v-61.14h16.65c.43,0,.83.21,1.08.56l2.68,3.8c.74,1.05,2.39.53,2.39-.76h0v-12.67h0c0-1.3-1.65-1.82-2.39-.77l-2.68,3.8c-.25.35-.65.56-1.08.56h-16.65v-14.68c5.96-1.42,10.43-6.71,10.58-13.06.02-.91-.04-1.84-.21-2.78-.96-5.56-5.39-10.06-10.94-11.09-.5-.09-1-.15-1.5-.18-.24-.02-.47-.02-.71-.02-.16,0-.32-.02-.48-.02h0c-7.56.05-13.71,6.19-13.71,13.77,0,6.49,4.52,11.94,10.58,13.39v14.69h-16.65c-.43,0-.83-.21-1.08-.56l-2.68-3.8c-.74-1.05-2.39-.53-2.39.76v12.67c0,1.29,1.65,1.81,2.39.76l2.68-3.8c.25-.35.65-.56,1.08-.56h16.65v61.15c-16.98-1.56-30.68-11.9-33-27.64-.23-1.56,1.02-2.96,2.6-2.96,2.02,0,3.28-2.18,2.27-3.93l-6.01-10.42c-1.01-1.75-3.53-1.75-4.54,0l-6.02,10.42c-1.01,1.75.25,3.93,2.27,3.93h.7c1.34,0,2.47,1.01,2.6,2.34,2.08,21.71,20.26,38.36,42.32,38.36s40.24-16.65,42.32-38.36c.13-1.33,1.26-2.34,2.6-2.34h.56c1.52,0,2.6-1.23,2.62-2.59,0-.45-.1-.92-.35-1.36ZM2048.18,1402.16c0-4.62,3.76-8.39,8.39-8.39s8.38,3.76,8.38,8.38c0,4.62-3.76,8.38-8.38,8.38-.02,0-.04,0-.07,0h0c-4.59-.03-8.32-3.77-8.32-8.37Z"/>
  <circle class="cls-7" cx="1936" cy="870.23" r="30.27"/>
  <circle class="cls-7" cx="383.75" cy="180.73" r="30.03"/>
  <circle class="cls-7" cx="1348.64" cy="224.59" r="30.1"/>
  <circle class="cls-7" cx="2238.42" cy="1377.67" r="30.34"/>
  <circle class="cls-7" cx="1703.95" cy="1405.7" r="30.31"/>
  <circle class="cls-7" cx="1620.82" cy="1502.6" r="29.74"/>
  <circle class="cls-7" cx="2294.52" cy="751.92" r="30.59"/>
  <circle class="cls-7" cx="2309.76" cy="669.03" r="13.1"/>
  <circle class="cls-7" cx="2577.05" cy="998.24" r="30.07"/>
  <circle class="cls-7" cx="2810.26" cy="662.28" r="30.12"/>
  <text class="cls-2" transform="translate(1900.18 830.74)"><tspan x="0" y="0">UBUD</tspan></text>
  <text class="cls-2" transform="translate(2251.75 649.75)"><tspan x="0" y="0">TEMBUKU</tspan></text>
  <circle class="cls-3" cx="2238.42" cy="1327.62" r="12.84"/>
  <text class="cls-1" transform="translate(2205.08 1277.25)"><tspan x="0" y="0">NUSE</tspan><tspan x="-43.34" y="28.8">LEMBONGAN</tspan></text>
  <circle class="cls-7" cx="2694.67" cy="725.41" r="12.77"/>
  <text class="cls-2" transform="translate(2649.78 760.73)"><tspan x="0" y="0">CHULIK</tspan></text>
  <circle class="cls-7" cx="1221.8" cy="326.97" r="12.51"/>
  <text class="cls-2" transform="translate(1155.83 368.17)"><tspan x="0" y="0">TEMOEKOES</tspan></text>
  <circle class="cls-7" cx="1786.99" cy="117.36" r="12.71"/>
  <text class="cls-2" transform="translate(1691.02 153.56)"><tspan x="0" y="0">KUBU</tspan><tspan class="cls-12" x="66.68" y="0">T</tspan><tspan x="79.57" y="0">AMBAHAN</tspan></text>
  <text class="cls-2" transform="translate(292.48 241.98)"><tspan x="0" y="0">BANJUWEDANG</tspan></text>
  <text class="cls-5" transform="translate(1926.65 882.33)"><tspan x="0" y="0">1</tspan></text>
  <text class="cls-5" transform="translate(2282.52 763.37)"><tspan x="0" y="0">2</tspan></text>
  <text class="cls-5" transform="translate(372.71 192.68)"><tspan x="0" y="0">3</tspan></text>
  <text class="cls-5" transform="translate(1336.09 236.43)"><tspan x="0" y="0">4</tspan></text>
  <text class="cls-5" transform="translate(2799.98 673.96)"><tspan x="0" y="0">5</tspan></text>
  <text class="cls-5" transform="translate(2565.54 1011.71)"><tspan x="0" y="0">6</tspan></text>
  <text class="cls-5" transform="translate(2226.12 1389.78)"><tspan x="0" y="0">7</tspan></text>
  <text class="cls-5" transform="translate(1608.53 1514.71)"><tspan x="0" y="0">8</tspan></text>
  <text class="cls-5" transform="translate(1693.32 1418.97)"><tspan x="0" y="0">9</tspan></text>
  <path class="cls-11" d="M2097.35,455.77s17.68-2.72,35.36-19.04c17.68-16.32,19.29-74.8,15.08-87.72-4.2-12.92-4.88-43.52-21.2-53.04-16.32-9.52-26.52,9.52-25.84,18.36s22.44,5.25,5.44,29.15c-17,23.89-19.04,35.45-12.24,41.57s0,41.48-19.72,44.2c-19.72,2.72,11.56,25.16,23.12,26.52Z"/>
  <path class="cls-11" d="M1549.58,440.98s-48.74,27.54-41.09,44.37c7.65,16.83,30.6,40.61,35.19,34.08s13.77-24.9,24.48-21.84c10.71,3.06,27.54,4.58,15.3-16.83-12.24-21.42-33.88-39.78-33.88-39.78Z"/>
  <path class="cls-11" d="M1365.95,440.98s15.55-13.77,27.79-13.77,47.43-1.53,53.55,0,18.36,6.12,18.36,13.77-12.24,18.87-18.36,14.79c-6.12-4.08-13.77-19.7-21.42-14.19-7.65,5.52-9.18,6.23-16.83,15.05-7.65,8.82-22.95,3.42-29.07,0s-14.02-15.66-14.02-15.66Z"/>
  <path class="cls-11" d="M1318.77,443.98c-12.24,10.77-26.26,39.84-23.07,44.43,3.18,4.59,20.01,6.12,23.07,6.12s19-1.54,12.56-13.77c-6.44-12.24-14.09-4.59-6.44-12.24s-6.12-24.54-6.12-24.54Z"/>
</svg>