<?xml version="1.0" encoding="UTF-8"?>
<svg id="OBJECTS" xmlns="http://www.w3.org/2000/svg" version="1.1" xmlns:xlink="http://www.w3.org/1999/xlink" viewBox="0 0 500 500">
  <defs>
    <style>
      .cls-1 {
        stroke-width: 1.31px;
      }

      .cls-1, .cls-2, .cls-3, .cls-4, .cls-5, .cls-6, .cls-7, .cls-8 {
        fill: none;
        stroke: #fff;
      }

      .cls-1, .cls-2, .cls-3, .cls-4, .cls-7, .cls-8 {
        stroke-miterlimit: 10;
      }

      .cls-9 {
        fill: #000;
        stroke-width: 0px;
      }

      .cls-10 {
        clip-path: url(#clippath-2);
      }

      .cls-11 {
        clip-path: url(#clippath-1);
      }

      .cls-2 {
        stroke-width: 3.38px;
      }

      .cls-4 {
        stroke-width: 1.3px;
      }

      .cls-12 {
        clip-path: url(#clippath);
      }

      .cls-5, .cls-6 {
        stroke-linejoin: round;
      }

      .cls-5, .cls-7 {
        stroke-width: 3.34px;
      }

      .cls-6 {
        stroke-linecap: round;
        stroke-width: 2.22px;
      }

      .cls-8 {
        stroke-width: 1.29px;
      }
    </style>
    <clipPath id="clippath">
      <polygon class="cls-3" points="250.85 293.94 239.7 277.95 243.15 262.11 251.98 251.79 272.9 246.4 266.04 240.56 250.69 235.94 232.45 242.13 223.19 255.35 219.7 274.47 227.3 289.54 240.25 296.6 250.85 293.94"/>
    </clipPath>
    <clipPath id="clippath-1">
      <polygon class="cls-3" points="275.92 332.39 286.12 326.25 295.92 324.95 289.79 319.22 274.9 317.31 261.88 324.33 257.54 336.59 259.54 350.71 268.62 359.75 280.33 359.51 273.68 352.74 272.39 340.4 275.92 332.39"/>
    </clipPath>
    <clipPath id="clippath-2">
      <rect class="cls-3" x="157.14" y="76.01" width="185.72" height="347.99" rx="66.93" ry="66.93"/>
    </clipPath>
  </defs>
  <rect class="cls-9" x="-545.24" y="-1.59" width="444.67" height="506.77"/>
  <rect class="cls-7" x="157.14" y="76.01" width="185.72" height="347.99" rx="66.93" ry="66.93"/>
  <rect class="cls-1" x="148.98" y="65.5" width="202.03" height="369" rx="72.81" ry="72.81"/>
  <g>
    <path class="cls-5" d="M253.9,293.94c-16.2,8.32-29.32-4.6-32.37-14.85-3.15-10.6-1.8-21.14,6.39-30.82,9.75-11.52,24.8-16.06,39.17-7.08,11.09,6.93,10.69,23.47,2.18,34.98h0c15.92-8.17,21.74-18.67,20.03-36.06-.65-8.3-4.37-17.55-11.68-23.58-15.23-12.58-46.82-14.9-68.71,6.51-5.59,5.46-18.34,21.64-32.29,47.56-5.54,10.3-11.94,17.68-19.24,22.2"/>
    <path class="cls-5" d="M268.93,276.17s33.45-12.01,25.18-46.93c-4.97-21.01-23.59-28.03-31.06-28.73-22.49-2.1-37.01,5.21-56.78,25.31"/>
    <path class="cls-5" d="M282.08,358.49c-2.92,2.34-12.79-7.7-9.32-19.59,4.05-13.88,17.12-14.16,22.46-14.57"/>
    <path class="cls-5" d="M292.84,345.64s24.33-8.74,18.32-34.13c-3.62-15.28-17.15-20.39-22.59-20.89-16.36-1.53-26.91,3.79-41.29,18.41"/>
    <path class="cls-5" d="M182.73,395.32c4.91-.63,5.18-6.98,10.61-6.98,5.71,0,5.71,7.03,11.41,7.03s5.71-7.03,11.42-7.03,5.71,7.03,11.42,7.03,5.71-7.03,11.42-7.03,5.71,7.03,11.41,7.03,5.71-7.03,11.41-7.03,5.71,7.03,11.41,7.03,5.71-7.03,11.42-7.03,5.71,7.03,11.42,7.03,5.71-7.03,11.42-7.03c4.91,0,5.6,5.2,9.33,6.65"/>
    <path class="cls-5" d="M156.59,317.62c3.9,1.35,4.53,6.73,9.52,6.73,5.71,0,5.71-7.03,11.41-7.03s5.71,7.03,11.41,7.03,5.71-7.03,11.42-7.03,5.71,7.03,11.42,7.03,5.71-7.03,11.42-7.03,5.71,7.03,11.41,7.03"/>
    <path class="cls-5" d="M312.11,317.31c5.71,0,5.71,7.03,11.42,7.03s5.71-7.03,11.41-7.03c4.15,0,5.28,3.71,7.78,5.74"/>
    <path class="cls-5" d="M299.73,293.94c5.71,0,5.71-7.03,11.41-7.03s5.71,7.03,11.41,7.03,5.71-7.03,11.42-7.03c4.78,0,5.56,4.93,9.04,6.53"/>
    <path class="cls-5" d="M160.02,356.79c1.02-.94,2.24-1.63,4.03-1.63,5.71,0,5.71,7.03,11.41,7.03s5.71-7.03,11.42-7.03c3.67,0,4.98,2.9,6.96,4.97.97,1.02,2.34,1.55,3.74,1.56,11.52.02,20.84-6.57,28.13-20.1,10.14-18.85,19.42-30.61,23.48-34.59,15.92-15.57,38.9-13.88,49.97-4.73,5.32,4.39,8.03,11.11,8.5,17.15,1.24,12.65-2.99,20.28-14.57,26.23h0c6.19-8.38,6.48-20.4-1.59-25.44-10.45-6.53-21.4-3.23-28.49,5.15-5.96,7.04-6.94,14.71-4.65,22.41,2.21,7.46,11.2,17.32,22.98,11.27"/>
    <path class="cls-5" d="M340.41,352.34c-.69-.34-1.49-.54-2.46-.54-5.71,0-5.71,7.03-11.41,7.03s-5.71-7.03-11.41-7.03-5.71,7.03-11.42,7.03-5.71-7.03-11.42-7.03-5.71,7.03-11.42,7.03"/>
    <path class="cls-5" d="M269.14,295.58s-3.5-4.37-6.7-4.87c-3.2-.51-8.29,3.13-8.29,3.13-5.28,1.87-17.59-10.59-12.82-26.94,5.57-19.09,23.54-19.47,30.88-20.03"/>
    <g>
      <g class="cls-12">
        <g>
          <line class="cls-8" x1="241.72" y1="211.97" x2="174.55" y2="340.53"/>
          <line class="cls-8" x1="247.8" y1="211.97" x2="180.63" y2="340.53"/>
          <line class="cls-8" x1="253.88" y1="211.97" x2="186.71" y2="340.53"/>
          <line class="cls-8" x1="261.81" y1="208.42" x2="192.79" y2="340.53"/>
          <line class="cls-8" x1="266.04" y1="211.97" x2="198.87" y2="340.53"/>
          <line class="cls-8" x1="272.12" y1="211.97" x2="204.95" y2="340.53"/>
          <line class="cls-8" x1="278.2" y1="211.97" x2="209.26" y2="343.93"/>
          <line class="cls-8" x1="284.28" y1="211.97" x2="217.11" y2="340.53"/>
          <line class="cls-8" x1="290.35" y1="211.97" x2="223.19" y2="340.53"/>
          <line class="cls-8" x1="296.43" y1="211.97" x2="229.26" y2="340.53"/>
        </g>
      </g>
      <polygon class="cls-3" points="250.85 293.94 239.7 277.95 243.15 262.11 251.98 251.79 272.9 246.4 266.04 240.56 250.69 235.94 232.45 242.13 223.19 255.35 219.7 274.47 227.3 289.54 240.25 296.6 250.85 293.94"/>
    </g>
    <g>
      <g class="cls-11">
        <g>
          <line class="cls-8" x1="269.17" y1="265.61" x2="202" y2="394.17"/>
          <line class="cls-8" x1="275.25" y1="265.61" x2="208.08" y2="394.17"/>
          <line class="cls-8" x1="281.33" y1="265.61" x2="214.16" y2="394.17"/>
          <line class="cls-8" x1="289.26" y1="262.06" x2="220.24" y2="394.17"/>
          <line class="cls-8" x1="293.49" y1="265.61" x2="226.32" y2="394.17"/>
          <line class="cls-8" x1="299.56" y1="265.61" x2="232.4" y2="394.17"/>
          <line class="cls-8" x1="305.64" y1="265.61" x2="236.7" y2="397.58"/>
          <line class="cls-8" x1="311.72" y1="265.61" x2="244.55" y2="394.17"/>
          <line class="cls-8" x1="317.8" y1="265.61" x2="250.63" y2="394.17"/>
          <line class="cls-8" x1="323.88" y1="265.61" x2="256.71" y2="394.17"/>
        </g>
      </g>
      <polygon class="cls-3" points="275.92 332.39 286.12 326.25 295.92 324.95 289.79 319.22 274.9 317.31 261.88 324.33 257.54 336.59 259.54 350.71 268.62 359.75 280.33 359.51 273.68 352.74 272.39 340.4 275.92 332.39"/>
    </g>
  </g>
  <g>
    <g class="cls-10">
      <g>
        <circle class="cls-2" cx="250" cy="144.15" r="33.94"/>
        <line class="cls-4" x1="250" y1="110.2" x2="250" y2="-99.77"/>
        <line class="cls-4" x1="241.56" y1="111.27" x2="189.34" y2="-92.11"/>
        <line class="cls-4" x1="233.65" y1="114.4" x2="132.49" y2="-69.6"/>
        <line class="cls-4" x1="226.76" y1="119.4" x2="83.03" y2="-33.66"/>
        <line class="cls-4" x1="221.34" y1="125.96" x2="44.06" y2="13.45"/>
        <line class="cls-4" x1="217.72" y1="133.66" x2="18.02" y2="68.77"/>
        <line class="cls-4" x1="216.12" y1="142.01" x2="6.57" y2="128.83"/>
        <line class="cls-4" x1="216.66" y1="150.51" x2="10.41" y2="189.85"/>
        <line class="cls-4" x1="219.29" y1="158.6" x2="29.3" y2="248"/>
        <line class="cls-4" x1="223.85" y1="165.78" x2="62.06" y2="299.62"/>
        <line class="cls-4" x1="230.05" y1="171.61" x2="106.63" y2="341.48"/>
        <line class="cls-4" x1="237.5" y1="175.71" x2="223.2" y2="211.82"/>
        <line class="cls-4" x1="245.75" y1="177.82" x2="242.65" y2="202.35"/>
        <line class="cls-4" x1="263.32" y1="249.59" x2="268.74" y2="292.5"/>
        <line class="cls-4" x1="254.25" y1="177.82" x2="257.29" y2="201.89"/>
        <line class="cls-4" x1="292.98" y1="252.7" x2="306.98" y2="288.05"/>
        <line class="cls-4" x1="262.5" y1="175.71" x2="273.24" y2="202.85"/>
        <line class="cls-4" x1="269.95" y1="171.61" x2="393.37" y2="341.48"/>
        <line class="cls-4" x1="276.15" y1="165.78" x2="437.94" y2="299.62"/>
        <line class="cls-4" x1="280.71" y1="158.6" x2="470.7" y2="248"/>
        <line class="cls-4" x1="283.34" y1="150.51" x2="489.59" y2="189.85"/>
        <line class="cls-4" x1="283.88" y1="142.01" x2="493.43" y2="128.83"/>
        <line class="cls-4" x1="282.28" y1="133.66" x2="481.98" y2="68.77"/>
        <line class="cls-4" x1="278.66" y1="125.96" x2="455.94" y2="13.45"/>
        <line class="cls-4" x1="273.24" y1="119.4" x2="416.97" y2="-33.66"/>
        <line class="cls-4" x1="266.35" y1="114.4" x2="367.51" y2="-69.6"/>
        <line class="cls-4" x1="258.44" y1="111.27" x2="310.66" y2="-92.11"/>
      </g>
    </g>
    <rect class="cls-3" x="157.14" y="76.01" width="185.72" height="347.99" rx="66.93" ry="66.93"/>
  </g>
  <path class="cls-6" d="M296.67,143.36c-.4,0-.78.04-1.17.09-.52-7.76-6.96-13.89-14.85-13.89-6.68,0-12.33,4.4-14.22,10.45-1.31-.61-2.76-.96-4.3-.96-5.61,0-10.15,4.55-10.15,10.15,0,5.21,3.93,9.5,8.98,10.08,0,0,35.36.07,35.7.07,4.42,0,8-3.58,8-8s-3.58-8-8-8Z"/>
  <path class="cls-6" d="M297.27,197.74c.29,0,.57.03.85.07.38-5.66,5.07-10.13,10.82-10.13,4.87,0,8.99,3.2,10.37,7.62.95-.45,2.01-.7,3.13-.7,4.09,0,7.4,3.31,7.4,7.4,0,3.8-2.86,6.93-6.55,7.35,0,0-25.78.05-26.03.05-3.22,0-5.83-2.61-5.83-5.83s2.61-5.83,5.83-5.83Z"/>
  <path class="cls-6" d="M205.31,192.39c0-4.99-4.05-9.04-9.04-9.04-4.1,0-7.55,2.73-8.66,6.46-1.17-1.02-2.69-1.64-4.36-1.64-3.66,0-6.63,2.97-6.63,6.63s2.97,6.63,6.63,6.63l13.95-.05c4.55-.47,8.11-4.31,8.11-8.99Z"/>
</svg>